<svg xmlns="http://www.w3.org/2000/svg" width="1556.892px" height="475.579px" viewBox="0 0 1556.892 475.579"><path fill="currentColor" d="M166.885,181.013L219.89,90.65l53.052-90.41l-62.174-0.144c-34.184-0.048-62.27,0-62.366,0.096 c-0.144,0.096,5.233,9.555,11.907,21.031c6.625,11.427,12.099,21.03,12.099,21.318s-18.004,31.401-39.993,69.14 c-21.989,37.739-40.089,68.756-40.185,68.996c-0.096,0.192,16.66,0.336,37.208,0.336H166.885z M256.906,41.628 c-0.192,0.48,5.329,0.624,25.926,0.72l26.166,0.144l-6.769,11.62l-6.818,11.619l-52.812,0.096L230.308,86.81 c-6.77,11.523-12.291,20.982-12.243,21.03c0,0,18.1-0.096,40.137-0.24c22.037-0.192,40.185-0.24,40.233-0.192 c0.096,0.048-3.889,7.01-8.882,15.46l-9.026,15.364l-40.233,0.145l-40.281,0.144l-11.09,18.966 c-6.146,10.419-11.763,19.974-12.483,21.27l-1.344,2.257h86.803l86.803-0.048l14.883-25.255 c8.21-13.876,14.932-25.495,15.027-25.783c0.048-0.288-4.417-8.259-9.938-17.717c-5.569-9.411-10.322-17.573-10.61-18.102 c-0.48-0.864,1.488-4.465,13.635-25.591c7.778-13.54,14.307-24.967,14.452-25.399c0.192-0.528-3.889-7.875-12.243-21.942 L361.329,0L321.24,0.096L281.151,0.24l-12.002,20.406C262.571,31.881,257.05,41.34,256.906,41.628z M362.865,181.013h203.085 l-0.912-1.777c-0.528-1.008-6.146-10.563-12.435-21.27l-11.427-19.446l-39.705-0.24l-39.705-0.24l19.684-33.61 c11.619-19.782,19.588-33.898,19.445-34.282c-0.288-0.768-35-60.162-36.008-61.65c-0.528-0.768-1.008-0.144-4.177,5.282 c-10.082,17.285-95.253,163.008-96.453,164.976L362.865,181.013z M561.293,158.831l13.011,22.183h74.705l-1.392-2.257 c-0.768-1.296-24.534-41.724-52.86-89.93c-28.278-48.206-51.612-87.77-51.804-88.01c-0.192-0.192-16.996-0.288-37.353-0.24 L468.537,0.72l18.628,31.689C504.737,62.37,532.199,109.136,561.293,158.831z M662.692,181.013h54.012V42.252h52.812V0H632.686 v129.734l15.027,25.64L662.692,181.013z M944.755,42.252h53.052l12.146-20.838c6.626-11.475,12.099-20.982,12.099-21.126 S985.756,0,941.394,0h-80.657v181.013h84.019V42.252z M1022.052,42.156l11.523,0.096v138.761h82.578V0h-80.994l-12.291,21.03 l-12.339,20.982L1022.052,42.156z M1225.282,172.034c-2.544-4.993-7.537-14.548-10.994-21.27l-6.386-12.244l-42.009-0.144 l-42.058-0.096v42.732h106.104L1225.282,172.034z M1236.901,181.013h84.259V0h-84.451l0.096,90.507L1236.901,181.013z  M1463.416,178.756c-0.721-1.296-6.338-10.851-12.482-21.27l-11.091-18.966l-55.501-0.144l-55.5-0.096v42.732h135.918 L1463.416,178.756z M1420.925,106.879c-0.336-0.625-5.905-10.131-12.387-21.126l-11.763-19.974h-67.935v42.252h92.709 L1420.925,106.879z M579.73,39.516L579.73,39.516l1.632,2.737h43.642V0h-34.136c-29.767,0-34.087,0.096-33.896,0.72 C557.213,1.296,574.881,31.449,579.73,39.516z M853.055,0H784.4v42.252h68.655V0z M1392.599,21.415 c6.674-11.428,12.099-20.934,12.099-21.126c0-0.144-17.044-0.288-37.929-0.288h-37.928v42.252h51.659L1392.599,21.415z  M384.902,193.401l1.584-1.825l-67.839,0.048H250.76L125.212,333.218C56.173,411.097,0,474.763,0,474.763h12.291l60.83,0.145 l60.877,0.191l124.636-139.961C327.193,258.172,383.99,194.361,384.902,193.401z M1537.255,441.633l-19.636-33.273l-86.708-0.144 l-86.707-0.097v67.22h100.103c55.068,0,100.103,0.24,100.103,0.24l12.482-0.24 C1556.892,475.339,1548.058,459.975,1537.255,441.633z M356.624,439.425l-18.484-31.306l-65.535,0.048h-65.535l-27.846,31.449 c-15.315,17.237-28.663,32.362-29.719,33.563l-1.825,2.16h230.164l-1.392-2.353C375.732,471.738,366.802,456.613,356.624,439.425z  M397.337,225.282l-32.983,33.273v74.614l-0.048,74.613l19.732,33.754l19.732,33.802h149.217v-67.22h-38.937l-8.834-13.443 l-8.882-13.492V258.315h56.652v-66.259H430.32L397.337,225.282z M753.145,258.556l-32.983-33.273l-32.983-33.226H564.51v66.259 h56.653l-0.048,61.603v61.554l-16.996,26.408l-19.828,0.144l-19.781,0.096v67.22h147.681l20.501-33.754l20.5-33.802l-0.048-74.613 V258.556z M858.289,302.969c-57.422-58.433-78.834-80.184-79.026-80.184c-0.048,0-0.144,56.801-0.144,126.277v126.276h132.029 V356.505l-12.627-12.725C891.607,336.771,873.507,318.43,858.289,302.969z M1116.826,416.282 c-25.878-26.552-76.625-78.6-112.777-115.715c-36.199-37.114-74.849-76.773-85.939-88.201l-20.164-20.742H830.97l-66.975-0.048 l4.128,4.225c2.257,2.305,32.167,32.938,66.447,68.036c34.279,35.146,72.063,73.702,83.971,85.705 c11.954,12.004,27.702,27.992,35.096,35.53c7.394,7.539,19.396,19.734,26.694,27.128c7.249,7.395,24.197,24.632,37.641,38.315 l24.389,24.823h132.126l-5.329-5.378C1166.229,466.984,1142.656,442.833,1116.826,416.282z M1219.953,225.33l-19.78,33.226 v216.783h132.029V192.056h-92.469L1219.953,225.33z M1041.257,323.326l14.547,14.645c22.373,22.663,40.617,41.148,81.282,82.536 c20.548,20.886,37.448,38.027,37.496,38.027c0.096,0,0.145-59.97,0.145-133.239V192.056h-133.47V323.326z M1344.205,294.806v66.26 h72.736c39.992,0,72.736-0.096,72.736-0.24c0-0.144-8.689-15.076-19.301-33.129l-19.348-32.891H1344.205z M177.976,258.315 l29.526-33.226c16.228-18.293,29.431-33.273,29.431-33.273c-0.048-0.048-34.136,0.048-75.713,0.144l-75.665,0.192l-19.3,32.794 c-10.61,18.005-19.3,32.889-19.3,33.081c0,0.145,29.479,0.288,65.535,0.288H177.976z M1344.205,258.315h22.469 c12.387,0,31.879-0.144,43.354-0.336l20.837-0.288l15.508-26.696c8.497-14.691,17.092-29.432,19.06-32.793l3.553-6.146h-124.779 V258.315z"/></svg>
