<svg xmlns="http://www.w3.org/2000/svg" width="256" height="256" viewBox="0 0 256 256" preserveAspectRatio="xMidYMid">
    <path d="M197.195 87.475c0-15.823-12.842-28.665-28.665-28.665s-28.665 12.842-28.665 28.665 12.842 28.665 28.665 28.665 28.665-12.842 28.665-28.665" fill="currentColor"/>
    <path d="M61.25 113.756h8.56V169.4h31.698v7.526H61.25v-63.18m55.696 17.128v30.58c0 2.35.363 4.273 1.1 5.763 1.34 2.752 3.84 4.13 7.498 4.13 5.25 0 8.823-2.4 10.723-7.226 1.033-2.58 1.55-6.12 1.55-10.623v-22.622h7.742v46.062h-7.312l.086-6.795c-.986 1.75-2.2 3.226-3.673 4.43-2.898 2.4-6.415 3.613-10.55 3.613-6.443 0-10.832-2.194-13.167-6.58-1.266-2.35-1.9-5.5-1.9-9.42v-31.3h7.914m65.923 18.174c1.777-.228 2.968-.973 3.57-2.232.343-.7.516-1.684.516-2.98 0-2.648-.937-4.57-2.812-5.764s-4.557-1.792-8.047-1.792c-4.035 0-6.897 1.095-8.585 3.285-.944 1.2-1.56 3.012-1.845 5.403h-7.225c.143-5.693 1.983-9.654 5.52-11.883s7.64-3.342 12.307-3.342c5.412 0 9.8 1.032 13.188 3.097 3.35 2.064 5.026 5.276 5.026 9.635v26.538c0 .803.165 1.448.495 1.935s1.025.73 2.086.73a11.45 11.45 0 0 0 1.16-.064 18.63 18.63 0 0 0 1.376-.193v5.72c-1.204.344-2.122.56-2.752.645s-1.5.13-2.58.13c-2.667 0-4.602-.946-5.806-2.838-.63-1.003-1.075-2.422-1.333-4.257-1.577 2.064-3.842 3.856-6.795 5.375s-6.208 2.28-9.763 2.28c-4.273 0-7.763-1.296-10.472-3.888s-4.064-5.834-4.064-9.73c0-4.267 1.333-7.574 4-9.922s6.164-3.795 10.494-4.34l12.344-1.546zm-16.3 20.914c1.634 1.288 3.57 1.93 5.806 1.93 2.724 0 5.36-.63 7.914-1.9 4.3-2.1 6.45-5.5 6.45-10.263v-6.226c-.945.604-2.16 1.107-3.648 1.5a30.68 30.68 0 0 1-4.378.861l-4.68.602c-2.804.372-4.913.96-6.326 1.76-2.395 1.344-3.6 3.5-3.6 6.436 0 2.23.817 4 2.45 5.278z" fill="currentColor"/>
</svg>
