<svg xmlns="http://www.w3.org/2000/svg" width="256" height="256" viewBox="0 0 256 256" preserveAspectRatio="xMidYMid">
    <path d="M225.85 128.024c0-54.024-43.845-97.87-97.87-97.87S30.11 74 30.11 128.024s43.845 97.87 97.87 97.87 97.87-43.845 97.87-97.87" fill="currentColor"/>
    <path d="M254.515 30.154c0-15.823-12.842-28.665-28.665-28.665s-28.665 12.842-28.665 28.665S210.027 58.82 225.85 58.82s28.665-12.842 28.665-28.665" fill="currentColor"/>
    <path d="M132.532 255.926l-.102-2.935c3.63-.127 7.287-.413 10.873-.85l.356 2.914a129.46 129.46 0 0 1-11.127.871zm-11.162-.09a129.13 129.13 0 0 1-11.112-1.053l.404-2.908c3.582.497 7.235.843 10.858 1.03l-.15 2.933zm33.3-2.617l-.61-2.872a124.53 124.53 0 0 0 10.558-2.73l.86 2.807c-3.543 1.085-7.18 2.025-10.808 2.795zm-55.4-.454a127.52 127.52 0 0 1-10.761-2.973l.905-2.793a124.63 124.63 0 0 0 10.512 2.905l-.657 2.862zM176 246.7l-1.103-2.72c3.353-1.358 6.69-2.883 9.916-4.533l1.336 2.615c-3.303 1.688-6.718 3.25-10.15 4.64zm-97.944-.81a128.1 128.1 0 0 1-10.079-4.811l1.38-2.592c3.2 1.704 6.514 3.285 9.847 4.7l-1.148 2.703zm117.802-9.34l-1.56-2.488a126.27 126.27 0 0 0 8.981-6.189l1.77 2.343c-2.96 2.235-6.052 4.366-9.19 6.334zm-137.5-1.143c-3.106-2.02-6.164-4.202-9.088-6.487l1.808-2.314c2.858 2.233 5.845 4.366 8.88 6.34l-1.6 2.46zm155.3-12.3l-1.966-2.18a126.55 126.55 0 0 0 7.779-7.649l2.147 2.003c-2.528 2.7-5.207 5.344-7.96 7.827zm-172.878-1.44c-2.712-2.528-5.347-5.205-7.83-7.957l2.18-1.967c2.427 2.7 5.002 5.306 7.652 7.776l-2.002 2.148zm188.093-14.875l-2.312-1.81a126.2 126.2 0 0 0 6.343-8.878l2.46 1.6a128.97 128.97 0 0 1-6.492 9.085zm-203.036-1.687a128.8 128.8 0 0 1-6.338-9.189l2.487-1.56c1.923 3.066 4.007 6.086 6.193 8.978l-2.342 1.77zm215.205-17.014l-2.59-1.38c1.705-3.2 3.29-6.512 4.705-9.845l2.702 1.15c-1.45 3.41-3.07 6.8-4.816 10.077zm-227.058-1.878a128.08 128.08 0 0 1-4.645-10.148l2.72-1.104c1.36 3.354 2.887 6.69 4.538 9.914l-2.614 1.338zm235.788-18.66l-2.792-.907c1.12-3.443 2.098-6.98 2.9-10.51l2.86.658c-.832 3.615-1.834 7.235-2.98 10.76zM5.6 165.537c-1.087-3.544-2.03-7.18-2.8-10.807l2.872-.61c.754 3.543 1.674 7.095 2.735 10.557l-2.807.86zm249.175-19.73l-2.908-.405a125.87 125.87 0 0 0 1.033-10.857l2.933.15c-.19 3.708-.547 7.446-1.058 11.11zM.957 143.72a129.35 129.35 0 0 1-.876-11.127l2.934-.104c.128 3.627.416 7.285.856 10.873l-2.914.357zm252.035-20.084a125.48 125.48 0 0 0-.856-10.876l2.914-.358a128.39 128.39 0 0 1 .876 11.132l-2.934.102zM3.098 121.58l-2.932-.15a129.1 129.1 0 0 1 1.047-11.112l2.908.402a126.14 126.14 0 0 0-1.023 10.859zM250.335 102a125.61 125.61 0 0 0-2.732-10.563l2.808-.86c1.084 3.546 2.025 7.183 2.796 10.81l-2.872.6zM6.088 99.996l-2.862-.656c.828-3.614 1.826-7.235 2.968-10.762l2.793.904a124.54 124.54 0 0 0-2.9 10.513zM243.962 81.15c-1.358-3.36-2.88-6.7-4.525-9.928l2.616-1.333a128.64 128.64 0 0 1 4.631 10.161l-2.722 1.1zM12.802 79.26L10.1 78.113c1.447-3.413 3.064-6.805 4.806-10.08l2.592 1.378a125.06 125.06 0 0 0-4.696 9.849zm10.233-19.25l-2.462-1.6a129.05 129.05 0 0 1 6.483-9.091l2.314 1.807c-2.23 2.858-4.362 5.847-6.335 8.883zM36.45 42.824l-2.15-2a129.43 129.43 0 0 1 7.953-7.835l1.968 2.18a126.54 126.54 0 0 0-7.772 7.656zm16.177-14.6l-1.772-2.34a128.99 128.99 0 0 1 9.185-6.343l1.562 2.486a125.92 125.92 0 0 0-8.975 6.198zm143.494-5.1l-.16-.104 1.597-2.464.155.1-1.59 2.467zm-9.568-5.627c-3.202-1.696-6.517-3.272-9.854-4.682l1.143-2.704a128.38 128.38 0 0 1 10.085 4.792l-1.374 2.594zm-115.47-.864l-1.34-2.613c3.3-1.692 6.715-3.256 10.145-4.65l1.105 2.72c-3.352 1.362-6.687 2.9-9.912 4.543zM166.475 9c-3.448-1.115-6.986-2.09-10.517-2.9l.656-2.862a128.48 128.48 0 0 1 10.764 2.968L166.475 9zM91.27 8.424l-.862-2.807a127.61 127.61 0 0 1 10.806-2.805l.612 2.87a124.67 124.67 0 0 0-10.556 2.741zm53.958-4.297a125.76 125.76 0 0 0-10.862-1.03l.15-2.932c3.703.19 7.443.543 11.117 1.054l-.404 2.908zM112.58 3.88l-.36-2.914c3.67-.452 7.413-.748 11.126-.88l.105 2.934c-3.628.13-7.286.42-10.872.862z" fill="currentColor"/>
</svg>
